<svg xmlns="http://www.w3.org/2000/svg" width="552" height="149" viewBox="0 0 552 149" fill="none"><path d="M330.456 0C331.468 0.00602532 332.487 0.0120499 333.511 0.0180752C333.499 49.6607 333.511 99.2972 333.505 148.94C332.487 148.94 331.468 148.94 330.462 148.952C330.45 99.2972 330.456 49.6486 330.456 0Z" fill="#61794a"></path><path d="M48.04 22.3058C52.0836 22.2998 56.1272 22.2998 60.1709 22.2998C75.9356 57.096 91.7004 91.8922 107.465 126.688C98.2871 126.688 89.1091 126.688 79.9371 126.688C71.3255 105.582 62.732 84.463 54.1084 63.3623C45.4908 84.469 36.8913 105.588 28.2738 126.694C19.1018 126.688 9.92975 126.688 0.757748 126.688C16.5165 91.8922 32.2873 57.102 48.04 22.3058Z" fill="#61794a"></path><path d="M140.393 25.7038C160.406 18.4975 184.24 22.8056 200.011 37.2363C194.593 43.0507 189.151 48.835 183.74 54.6554C178.72 49.7629 172.151 46.4731 165.185 45.5693C154.922 44.069 143.942 47.6058 136.801 55.1977C131.293 60.9278 128.28 69.0379 129.081 76.9853C129.787 85.3002 134.589 92.9885 141.387 97.7304C151.523 105.009 165.709 105.599 176.617 99.6766C176.629 98.11 176.635 96.5434 176.641 94.9829C169.68 94.9769 162.726 94.9829 155.766 94.9829C155.772 87.6983 155.766 80.4197 155.772 73.1351C171.802 73.1411 187.832 73.1351 203.868 73.1411C203.874 84.6916 203.856 96.2482 203.874 107.805C197.486 114.86 189.308 120.247 180.311 123.356C166.227 128.261 150.306 127.724 136.626 121.765C126.81 117.524 118.168 110.468 112.31 101.496C107.188 93.6995 104.289 84.4446 104.205 75.1054C104.042 65.2299 107.025 55.3664 112.509 47.1599C119.108 37.1941 129.148 29.6684 140.393 25.7038Z" fill="#61794a"></path><path d="M215.541 22.3058C245.371 22.2998 275.201 22.3058 305.031 22.2998C305.031 29.729 305.031 37.1643 305.031 44.5935C275.201 44.5935 245.371 44.5935 215.541 44.5935C215.541 37.1643 215.541 29.7351 215.541 22.3058Z" fill="#61794a"></path><path d="M223.568 63.3076C248.046 63.3136 272.531 63.3136 297.01 63.3076C297.01 70.7549 297.016 78.2022 297.01 85.6435C272.525 85.6374 248.046 85.6435 223.568 85.6435C223.561 78.1962 223.561 70.7549 223.568 63.3076Z" fill="#61794a"></path><path d="M215.541 104.358C245.371 104.358 275.201 104.358 305.031 104.358C305.025 111.806 305.037 119.247 305.025 126.694C275.201 126.688 245.371 126.694 215.541 126.688C215.541 119.247 215.541 111.8 215.541 104.358Z" fill="#61794a"></path><path d="M362.528 39.3647C363.494 39.3595 364.454 39.3544 365.42 39.3595C367.269 47.3474 369.113 55.3352 370.958 63.3282C369.946 63.3231 368.94 63.3231 367.933 63.3282C367.571 61.4935 367.208 59.6639 366.845 57.8394C364.934 57.8343 363.023 57.8343 361.113 57.8343C360.745 59.6639 360.387 61.4935 360.03 63.3231C359.018 63.3231 358.006 63.3231 357 63.3231C358.839 55.3352 360.694 47.3525 362.528 39.3647ZM361.629 55.1973C363.192 55.1973 364.761 55.1972 366.329 55.2023C365.552 51.211 364.766 47.2299 363.979 43.2436C363.192 47.2299 362.405 51.211 361.629 55.1973Z" fill="#61794a"></path><path d="M377.773 39.3675C380.925 39.5719 384.41 38.6827 387.296 40.3078C390.03 42.0454 389.534 45.725 389.401 48.5001C389.381 50.345 388.052 51.7044 386.688 52.7521C387.823 56.2784 389.003 59.7945 390.147 63.3259C389.1 63.3208 388.058 63.3208 387.01 63.3157C386.009 59.9478 384.992 56.5799 383.991 53.212C382.846 53.2069 381.702 53.2018 380.558 53.2069C380.552 56.5799 380.558 59.9529 380.558 63.3259C379.628 63.3208 378.698 63.3208 377.773 63.3208C377.778 55.3329 377.773 47.3502 377.773 39.3675ZM380.563 41.9534C380.552 44.8358 380.552 47.7233 380.563 50.6107C382.489 50.4523 385.258 51.2393 386.372 49.1389C386.893 47.294 386.913 45.1986 386.32 43.3691C385.171 41.3248 382.468 42.1067 380.563 41.9534Z" fill="#61794a"></path><path d="M399.65 39.9096C402.133 38.6473 405.648 38.7495 407.63 40.8858C409.234 42.6847 408.979 45.2553 409.004 47.4937C408.877 51.6998 409.239 55.9313 408.734 60.1271C409.607 60.7915 410.486 61.4559 411.365 62.1202C410.854 62.7744 410.333 63.4234 409.817 64.0827C409.004 63.4796 408.187 62.8868 407.375 62.2991C405.065 63.7147 402.015 64.1287 399.589 62.7539C397.857 61.7625 397.085 59.708 397.101 57.7916C397.049 53.6673 397.095 49.5431 397.08 45.4239C397.014 43.3286 397.693 40.9675 399.65 39.9096ZM399.936 44.4069C399.742 48.3114 399.946 52.2312 399.849 56.1408C399.895 57.5565 399.681 59.3605 401.004 60.2958C402.164 61.185 403.676 60.7352 404.989 60.5973C404.279 59.9942 403.558 59.4116 402.838 58.8392C403.354 58.1902 403.87 57.5565 404.391 56.9177C404.994 57.3572 405.602 57.8069 406.215 58.2566C406.246 54.3266 406.215 50.3966 406.246 46.4716C406.195 45.3882 406.307 44.2332 405.811 43.2417C404.509 40.9062 400.028 41.5041 399.936 44.4069Z" fill="#61794a"></path><path d="M417.164 39.3573C418.083 39.3522 419.003 39.3522 419.922 39.3573C419.922 45.301 419.928 51.2497 419.912 57.1984C419.974 58.1848 419.856 59.3551 420.587 60.1472C421.976 61.5424 425.159 60.9751 425.226 58.7265C425.44 52.2769 425.246 45.8171 425.312 39.3625C426.227 39.3574 427.147 39.3522 428.071 39.3573C428.056 45.6536 428.097 51.955 428.061 58.2563C428.076 60.1626 427.274 62.2988 425.389 63.0705C423.391 63.8473 420.944 63.8371 419.105 62.6667C417.485 61.5782 417.138 59.493 417.153 57.689C417.164 51.5768 417.164 45.4696 417.164 39.3573Z" fill="#61794a"></path><path d="M435.663 39.3573C436.583 39.3522 437.513 39.3522 438.442 39.3573C438.448 47.3452 438.442 55.333 438.442 63.326C437.513 63.3209 436.583 63.3209 435.658 63.326C435.658 55.333 435.658 47.3452 435.663 39.3573Z" fill="#61794a"></path><path d="M446.336 39.3573C450.219 39.3522 454.102 39.3522 457.984 39.3573C457.979 40.2313 457.979 41.1052 457.984 41.9842C456.503 41.9893 455.021 41.9893 453.545 41.9944C453.534 49.1033 453.545 56.2121 453.54 63.3209C452.61 63.3209 451.68 63.3209 450.755 63.326C450.75 56.2121 450.755 49.1033 450.75 41.9944C449.279 41.9893 447.807 41.9893 446.336 41.9842C446.336 41.1052 446.336 40.2313 446.336 39.3573Z" fill="#61794a"></path><path d="M464.933 39.3597C468.366 39.3597 471.794 39.3546 475.227 39.3597C475.222 40.2336 475.222 41.1075 475.227 41.9917C472.724 41.9917 470.22 41.9917 467.717 41.9968C467.717 44.7003 467.712 47.4038 467.722 50.1124C469.95 50.1175 472.177 50.1175 474.41 50.1175C474.405 50.9914 474.405 51.8653 474.41 52.7443C472.177 52.7443 469.95 52.7494 467.717 52.7494C467.717 55.4069 467.717 58.0593 467.717 60.7168C470.22 60.722 472.724 60.7219 475.227 60.727C475.222 61.5958 475.222 62.4698 475.227 63.3539C471.794 63.359 468.366 63.3539 464.938 63.3539C464.927 55.3558 464.933 47.3578 464.933 39.3597Z" fill="#61794a"></path><path d="M481.481 39.363C485.364 39.3527 489.246 39.3527 493.134 39.3578C493.129 40.2318 493.129 41.1057 493.129 41.9847C491.653 41.9898 490.171 41.9898 488.695 41.9949C488.684 49.1037 488.689 56.2126 488.689 63.3214C487.76 63.3214 486.83 63.3214 485.905 63.3265C485.9 56.2177 485.91 49.1037 485.9 41.9949C484.434 41.9898 482.962 41.9898 481.496 41.9898C481.491 41.1108 481.481 40.2318 481.481 39.363Z" fill="#61794a"></path><path d="M499.316 39.3597C500.231 39.3597 501.15 39.3546 502.075 39.3597C502.075 45.3084 502.08 51.252 502.065 57.2008C502.116 58.3098 502.014 59.7254 503.071 60.4358C504.338 61.2126 506.459 61.0644 507.164 59.5874C507.506 58.6522 507.445 57.63 507.48 56.6539C507.445 50.8892 507.47 45.1244 507.465 39.3597C508.38 39.3546 509.299 39.3597 510.224 39.3648C510.203 45.661 510.255 51.9573 510.209 58.2587C510.234 60.1547 509.437 62.2654 507.583 63.0524C505.605 63.8394 503.179 63.8394 501.334 62.7202C499.689 61.6623 499.28 59.5721 499.311 57.7578C499.316 51.6251 499.316 45.4924 499.316 39.3597Z" fill="#61794a"></path><path d="M517.76 39.3627C520.922 39.5723 524.417 38.6779 527.303 40.3184C530.016 42.0713 529.521 45.7356 529.388 48.5107C529.362 50.3505 528.034 51.7048 526.675 52.7525C527.809 56.2839 528.989 59.7949 530.134 63.3263C529.081 63.3212 528.039 63.3211 526.997 63.316C525.995 59.9482 524.979 56.5803 523.977 53.2124C522.833 53.2073 521.688 53.2022 520.549 53.2073C520.539 56.5803 520.544 59.9533 520.544 63.3263C519.614 63.3212 518.684 63.3212 517.76 63.3212C517.765 55.3333 517.76 47.3506 517.76 39.3627ZM520.549 41.9538C520.539 44.8362 520.539 47.7237 520.549 50.6111C522.47 50.4527 525.234 51.2346 526.353 49.1495C526.879 47.2995 526.9 45.1939 526.302 43.3643C525.152 41.3252 522.45 42.1071 520.549 41.9538Z" fill="#61794a"></path><path d="M541.24 39.3647C542.201 39.3595 543.167 39.3544 544.132 39.3595C545.982 47.3474 547.826 55.3352 549.67 63.3282C548.654 63.3231 547.647 63.3231 546.646 63.3231C546.283 61.4935 545.92 59.6639 545.563 57.8343C543.647 57.8292 541.731 57.8343 539.82 57.8394C539.457 59.6639 539.1 61.4935 538.742 63.3231C537.731 63.3231 536.719 63.3231 535.713 63.3282C537.552 55.3403 539.406 47.3525 541.24 39.3647ZM540.341 55.1973C541.905 55.1973 543.473 55.1972 545.042 55.2023C544.265 51.2161 543.478 47.2299 542.691 43.2436C541.9 47.2247 541.118 51.211 540.341 55.1973Z" fill="#61794a"></path><path d="M357.004 84.3597C360.432 84.3546 363.86 84.3597 367.293 84.3597C367.288 85.2336 367.288 86.1075 367.288 86.9917C364.785 86.9917 362.287 86.9917 359.788 86.9917C359.783 89.7003 359.778 92.4089 359.788 95.1175C362.016 95.1124 364.243 95.1175 366.476 95.1226C366.471 95.9914 366.471 96.8653 366.471 97.7443C364.243 97.7443 362.016 97.7494 359.788 97.7494C359.783 100.407 359.783 103.059 359.783 105.722C362.287 105.722 364.79 105.722 367.293 105.722C367.288 106.596 367.288 107.47 367.293 108.354C363.86 108.359 360.432 108.359 357.004 108.349C356.999 100.356 356.999 92.3578 357.004 84.3597Z" fill="#61794a"></path><path d="M379 84.2014C382.332 84.1964 385.669 84.2014 389.006 84.2014C389.001 85.0775 389.001 85.9537 389.001 86.8348C386.534 86.8398 384.063 86.8348 381.596 86.8398C381.601 89.5081 381.596 92.1765 381.601 94.8448C383.813 94.8498 386.024 94.8448 388.24 94.8498C388.235 95.6809 388.23 96.5169 388.235 97.353C386.019 97.348 383.808 97.348 381.596 97.353C381.601 99.9763 381.596 102.6 381.596 105.223C384.063 105.228 386.534 105.223 389.006 105.228C389.001 106.059 389.001 106.89 389.006 107.731C385.669 107.731 382.332 107.736 379 107.726C379 99.8862 379 92.0463 379 84.2014Z" fill="#61794a"></path><path d="M396.004 84.201C396.805 84.196 397.605 84.196 398.411 84.201C400.557 90.0183 402.738 95.8206 404.869 101.643C404.889 95.8257 404.874 90.0133 404.879 84.201C405.755 84.196 406.63 84.196 407.516 84.201C407.511 92.0459 407.516 99.8857 407.511 107.731C406.681 107.726 405.865 107.726 405.045 107.731C402.898 102.033 400.782 96.3263 398.616 90.6391C398.601 96.3363 398.611 102.033 398.611 107.731C397.735 107.726 396.87 107.726 396.009 107.726C396.004 99.8857 396.009 92.0459 396.004 84.201Z" fill="#61794a"></path><path d="M418.662 84.4467C420.969 83.5907 424.075 83.8861 425.611 86.0237C426.677 87.4255 426.647 89.2678 426.657 90.9499C425.696 90.9399 424.746 90.9399 423.795 90.9399C423.69 89.7785 423.915 88.4568 423.125 87.4856C422.019 86.0938 419.538 86.3892 418.652 87.8861C418.117 89.0726 418.117 90.4042 418.112 91.6808C418.127 94.8799 418.117 98.0739 418.112 101.273C418.132 102.309 418.132 103.471 418.817 104.332C420.163 106.044 423.475 105.608 424 103.366C424.335 101.463 424.085 99.5057 424.155 97.5833C423.14 97.5783 422.139 97.5833 421.134 97.5933C421.144 96.7522 421.154 95.9162 421.159 95.0801C423.07 95.0801 424.981 95.0801 426.892 95.0801C426.712 98.3092 427.332 101.653 426.392 104.792C425.251 107.976 421.089 108.682 418.307 107.386C416.496 106.61 415.495 104.622 415.521 102.715C415.516 98.3793 415.511 94.0388 415.526 89.6983C415.475 87.5506 416.521 85.2027 418.662 84.4467Z" fill="#61794a"></path><path d="M434.026 84.2012C437.363 84.2012 440.7 84.2012 444.037 84.2012C444.032 85.0773 444.027 85.9534 444.032 86.8395C441.56 86.8395 439.094 86.8345 436.628 86.8395C436.633 89.5079 436.628 92.1762 436.633 94.8446C438.844 94.8496 441.055 94.8446 443.271 94.8496C443.261 95.6806 443.261 96.5117 443.266 97.3527C441.05 97.3477 438.839 97.3527 436.628 97.3527C436.633 99.976 436.628 102.599 436.628 105.223C439.094 105.228 441.565 105.223 444.037 105.228C444.032 106.059 444.032 106.89 444.037 107.726C440.7 107.731 437.363 107.731 434.026 107.726C434.031 99.8859 434.031 92.041 434.026 84.2012Z" fill="#61794a"></path><path d="M451.536 84.201C452.336 84.196 453.137 84.196 453.947 84.206C456.078 90.0183 458.275 95.8106 460.391 101.628C460.431 95.8206 460.401 90.0083 460.411 84.201C461.281 84.196 462.162 84.196 463.042 84.201C463.047 92.0459 463.042 99.8857 463.047 107.726C462.217 107.726 461.396 107.726 460.576 107.731C458.43 102.033 456.309 96.3263 454.147 90.6341C454.127 96.3313 454.147 102.033 454.142 107.731C453.267 107.726 452.401 107.726 451.536 107.731C451.541 99.8857 451.541 92.0409 451.536 84.201Z" fill="#61794a"></path><path d="M470.547 84.201C471.457 84.196 472.368 84.196 473.283 84.201C473.283 87.7955 473.283 91.3851 473.288 94.9796C475.084 94.9796 476.88 94.9796 478.686 94.9746C478.691 91.3851 478.686 87.7905 478.686 84.201C479.547 84.196 480.417 84.201 481.288 84.201C481.288 92.0459 481.288 99.8857 481.293 107.731C480.417 107.726 479.547 107.726 478.686 107.731C478.681 104.306 478.691 100.877 478.681 97.4527C476.88 97.4477 475.084 97.4477 473.288 97.4527C473.278 100.877 473.283 104.306 473.283 107.731C472.368 107.726 471.457 107.726 470.547 107.731C470.552 99.8857 470.552 92.0459 470.547 84.201Z" fill="#61794a"></path><path d="M493.364 84.201C494.27 84.196 495.185 84.196 496.106 84.201C497.952 92.0359 499.748 99.8857 501.564 107.731C500.569 107.726 499.588 107.726 498.602 107.726C498.272 105.933 497.942 104.141 497.577 102.359C495.686 102.354 493.8 102.354 491.919 102.359C491.548 104.146 491.188 105.933 490.848 107.726C489.863 107.726 488.882 107.726 487.901 107.731C489.747 99.8958 491.493 92.0309 493.364 84.201ZM492.389 99.8507C493.945 99.8507 495.506 99.8507 497.067 99.8557C496.311 95.8056 495.456 91.7806 494.7 87.7355C494.065 91.8006 493.154 95.8106 492.389 99.8507Z" fill="#61794a"></path><path d="M508.568 84.2016C511.745 84.4419 515.382 83.4506 518.174 85.4081C520.535 87.0852 519.879 90.2542 519.94 92.7423C520.045 94.6697 518.809 96.3318 517.243 97.308C518.354 100.797 519.509 104.272 520.69 107.736C519.649 107.726 518.624 107.726 517.593 107.716C516.648 104.417 515.632 101.143 514.662 97.8537C513.491 97.8487 512.33 97.8487 511.17 97.8487C511.175 101.143 511.17 104.437 511.175 107.731C510.294 107.726 509.434 107.726 508.568 107.731C508.573 99.8863 508.573 92.0464 508.568 84.2016ZM511.17 86.8399C511.175 89.6284 511.17 92.4169 511.17 95.2104C513.181 95.0702 516.212 95.9664 517.133 93.5083C517.368 91.7661 517.568 89.8687 516.943 88.1916C515.837 86.0539 513.076 87.0552 511.17 86.8399Z" fill="#61794a"></path><path d="M528.214 84.201C529.12 84.196 530.035 84.196 530.951 84.201C530.951 92.0459 530.951 99.8857 530.951 107.731C530.035 107.726 529.12 107.726 528.219 107.731C528.209 99.8857 528.219 92.0459 528.214 84.201Z" fill="#61794a"></path><path d="M542.893 84.201C543.798 84.196 544.714 84.196 545.639 84.201C547.475 92.0409 549.281 99.8857 551.087 107.731C550.097 107.726 549.111 107.726 548.13 107.726C547.8 105.933 547.47 104.141 547.105 102.359C545.214 102.354 543.328 102.354 541.447 102.359C541.077 104.146 540.716 105.933 540.376 107.726C539.391 107.726 538.41 107.726 537.434 107.731C539.275 99.8908 541.021 92.0309 542.893 84.201ZM541.917 99.8507C543.473 99.8507 545.034 99.8507 546.595 99.8507C545.839 95.8156 544.989 91.7956 544.223 87.7605C543.583 91.8106 542.682 95.8206 541.917 99.8507Z" fill="#61794a"></path></svg>